<svg xmlns="http://www.w3.org/2000/svg" viewBox="0 0 1024 1024" role="img" aria-label="AnkiGen icon">
  <defs>
    <linearGradient id="bg" x1="0" y1="0" x2="0" y2="1">
      <stop offset="0%" stop-color="#0B1119" />
      <stop offset="100%" stop-color="#1A2432" />
    </linearGradient>
    <filter id="shadow" x="-20%" y="-20%" width="140%" height="140%">
      <feDropShadow dx="0" dy="22" stdDeviation="22" flood-color="#000000" flood-opacity="0.24" />
    </filter>
  </defs>
  <rect x="36" y="36" width="952" height="952" rx="220" fill="url(#bg)" />
  <g filter="url(#shadow)">
    <rect x="182" y="262" width="538" height="530" rx="86" fill="#243040" stroke="#324256" stroke-width="8" />
    <rect x="250" y="188" width="570" height="604" rx="86" fill="#F7F5EF" stroke="#D4D1C7" stroke-width="8" />
  </g>
  <path d="M250 274c0-47.5 38.5-86 86-86h398c47.5 0 86 38.5 86 86v50H250z" fill="#16A3A0" />
  <path d="M710 188h110v108z" fill="#8CE2DE" />
  <path d="M710 188l110 108" stroke="#B7F3EE" stroke-width="8" />
  <rect x="340" y="404" width="274" height="24" rx="12" fill="#CAD1DB" />
  <rect x="340" y="478" width="274" height="24" rx="12" fill="#CAD1DB" />
  <rect x="340" y="552" width="274" height="24" rx="12" fill="#CAD1DB" />
  <rect x="340" y="626" width="210" height="24" rx="12" fill="#D9DEE6" />
  <text x="604" y="532" text-anchor="middle" dominant-baseline="middle" font-size="340" font-weight="700" font-family="'Segoe UI', Arial, sans-serif" fill="#0F1720">A</text>
  <path d="M760 310l19.8 41.2 45.5 6.6-32.9 32 7.8 45.3-40.2-21.1-40.2 21.1 7.8-45.3-32.9-32 45.5-6.6z" fill="#F59E0B" />
  <circle cx="756" cy="706" r="42" fill="#F59E0B" />
  <path d="M730 702l26 26 28-50z" fill="#FFF7E6" />
</svg>
